<?xml version="1.0" encoding="utf-8"?>
<!-- Generator: Adobe Illustrator 16.0.0, SVG Export Plug-In . SVG Version: 6.00 Build 0)  -->
<!DOCTYPE svg PUBLIC "-//W3C//DTD SVG 1.1//EN" "http://www.w3.org/Graphics/SVG/1.1/DTD/svg11.dtd">
<svg version="1.1" id="Layer_1" xmlns="http://www.w3.org/2000/svg" xmlns:xlink="http://www.w3.org/1999/xlink" x="0px" y="0px"
	 width="64px" height="64px" viewBox="0 0 64 64" enable-background="new 0 0 64 64" xml:space="preserve">
<path fill="#555555" d="M55,64H9c-1.657,0-3-1.343-3-3V35c0-1.657,1.343-3,3-3h5V18c0-9.94,8.059-18,18-18c9.941,0,18,8.06,18,18v14
	h5c1.657,0,3,1.343,3,3v26C58,62.657,56.657,64,55,64 M29,49.168V55c0,1.657,1.343,3,3,3s3-1.343,3-3v-5.832
	c1.786-1.04,3-2.952,3-5.168c0-3.312-2.686-6-6-6c-3.314,0-6,2.688-6,6C26,46.216,27.214,48.128,29,49.168 M44,18
	c0-6.627-5.373-12-12-12s-12,5.373-12,12v14h24V18z"/>
</svg>
