<?xml version="1.0" encoding="utf-8"?>
<!-- Generator: Adobe Illustrator 16.0.0, SVG Export Plug-In . SVG Version: 6.00 Build 0)  -->
<!DOCTYPE svg PUBLIC "-//W3C//DTD SVG 1.1//EN" "http://www.w3.org/Graphics/SVG/1.1/DTD/svg11.dtd">
<svg version="1.1" id="Layer_1" xmlns="http://www.w3.org/2000/svg" xmlns:xlink="http://www.w3.org/1999/xlink" x="0px" y="0px"
	 width="64px" height="64px" viewBox="0 0 64 64" enable-background="new 0 0 64 64" xml:space="preserve">
<path fill="#555555" d="M63.998,59.992c0,0.002,0,0.005,0,0.007c0,1.657-1.342,3-2.999,3H3.002c-1.657,0-3-1.343-3-3
	c0-0.002,0.001-0.005,0.001-0.007H0c0,0,0-10.934,7.987-14.907c5.055-2.515,3.109-0.474,9.313-3.046
	c6.205-2.57,7.676-3.467,7.676-3.467l0.058-5.924c0,0-2.324-1.777-3.046-7.352c-1.455,0.421-1.935-1.707-2.021-3.062
	c-0.077-1.309-0.841-5.396,0.933-5.026c-0.363-2.729-0.624-5.189-0.496-6.494c0.445-4.577,4.853-9.357,11.643-9.708
	c7.987,0.349,11.15,5.127,11.592,9.705c0.131,1.303-0.154,3.766-0.518,6.49c1.773-0.364,1.004,3.717,0.918,5.026
	c-0.08,1.354-0.57,3.474-2.02,3.055c-0.727,5.573-3.051,7.336-3.051,7.336l0.055,5.895c0,0,1.47,0.84,7.675,3.408
	c6.204,2.572,4.259,0.648,9.313,3.163C64,49.061,64,59.992,64,59.992H63.998z"/>
</svg>
